<?xml version="1.0" encoding="UTF-8" standalone="no"?>
<svg
   width="192"
   height="192"
   viewBox="0 0 192 192"
   fill="none"
   version="1.1"
   id="svg31"
   sodipodi:docname="AVenir_Icone.svg"
   inkscape:version="1.1.1 (3bf5ae0d25, 2021-09-20)"
   xmlns:inkscape="http://www.inkscape.org/namespaces/inkscape"
   xmlns:sodipodi="http://sodipodi.sourceforge.net/DTD/sodipodi-0.dtd"
   xmlns="http://www.w3.org/2000/svg"
   xmlns:svg="http://www.w3.org/2000/svg">
  <sodipodi:namedview
     id="namedview33"
     pagecolor="#ffffff"
     bordercolor="#666666"
     borderopacity="1.0"
     inkscape:pageshadow="2"
     inkscape:pageopacity="0.0"
     inkscape:pagecheckerboard="0"
     showgrid="false"
     inkscape:zoom="0.7361933"
     inkscape:cx="-179.30074"
     inkscape:cy="260.80107"
     inkscape:window-width="3840"
     inkscape:window-height="1851"
     inkscape:window-x="0"
     inkscape:window-y="88"
     inkscape:window-maximized="1"
     inkscape:current-layer="svg31" />
  <path
     d="m 26.526,105.018 18.6399,38.218 c 13.0766,26.811 46.8742,37.183 75.5641,23.191 28.689,-13.993 41.323,-47.012 28.247,-73.8231 L 120.3,33.8078 c -1.979,-4.057 -7.108,-5.6311 -11.449,-3.5138 -4.341,2.1173 -6.259,7.1283 -4.28,11.1853 l 17.923,36.7475 -6.292,3.0686 L 89.6764,26.909 c -1.9787,-4.0569 -7.1079,-5.6311 -11.4491,-3.5137 -4.3412,2.1173 -6.2585,7.1283 -4.2798,11.1852 L 97.6058,83.0873 91.3142,86.1559 63.3544,28.8297 c -1.9787,-4.0569 -7.1079,-5.6311 -11.4491,-3.5138 -4.3411,2.1174 -6.2585,7.1284 -4.2798,11.1853 L 75.5854,93.8274 69.2938,96.896 47.0693,51.329 c -1.9787,-4.0569 -7.1079,-5.6311 -11.449,-3.5138 -4.3412,2.1174 -6.2586,7.1284 -4.2799,11.1853 L 62.254,122.383 c 13.1112,-4.576 27.555,0.607 33.4051,12.602 l -6.2916,3.068 C 84.6359,128.352 72.2709,124.557 61.8898,129.62 l -3.1457,1.535 -16.4892,-33.8082 c -1.9787,-4.057 -7.1079,-5.6311 -11.449,-3.5138 -4.3412,2.1173 -6.2586,7.128 -4.2799,11.185 z"
     fill="url(#paint1_linear_6:10)"
     id="path6" />
  <circle
     cx="94"
     cy="112"
     r="45"
     fill="#124320"
     id="circle8" />
  <path
     d="m 84.2189,108.232 c 4.992,0.832 9.568,1.248 13.728,1.248 4.1601,0 6.8161,-0.032 7.9681,-0.096 -0.128,-4.864 -0.192,-9.536 -0.192,-14.016 0,-4.48 0,-7.52 0,-9.12 0,-1.6 0.064,-2.592 0.192,-2.976 0.128,-0.448 0.544,-0.864 1.248,-1.248 0.704,-0.384 1.728,-0.576 3.072,-0.576 1.92,0 2.88,1.152 2.88,3.456 v 33.984 c 0,7.04 -0.16,14.784 -0.48,23.232 -0.064,1.856 -1.632,2.784 -4.704,2.784 -1.536,0 -2.304,-0.928 -2.304,-2.784 l 0.384,-25.44 c -2.048,0.128 -4.864,0.192 -8.4481,0.192 -3.52,0 -7.968,-0.384 -13.344,-1.152 0,8.448 0.384,17.28 1.152,26.496 0.064,1.024 -0.384,1.824 -1.344,2.4 -0.96,0.512 -2.176,0.768 -3.648,0.768 -1.408,0 -2.176,-0.736 -2.304,-2.208 -0.832,-9.088 -1.248,-18.048 -1.248,-26.88 l 0.576,-29.952 c 0,-1.28 0.48,-2.208 1.44,-2.784 0.96,-0.64 1.984,-0.96 3.072,-0.96 1.792,0 2.688,0.864 2.688,2.592 z"
     fill="url(#paint2_diamond_6:10)"
     id="path10" />
  <defs
     id="defs29">
    <radialGradient
       id="paint0_diamond_6:10"
       cx="0"
       cy="0"
       r="1"
       gradientUnits="userSpaceOnUse"
       gradientTransform="matrix(0,78,-321.454,0,317,121)">
      <stop
         stop-color="#00FFE0"
         id="stop12" />
      <stop
         offset="0.0001"
         stop-color="#00FFE0"
         id="stop14" />
      <stop
         offset="1"
         stop-color="#26BD00"
         stop-opacity="0.74"
         id="stop16" />
    </radialGradient>
    <linearGradient
       id="paint1_linear_6:10"
       x1="51.9053"
       y1="25.315901"
       x2="120.73"
       y2="166.427"
       gradientUnits="userSpaceOnUse">
      <stop
         stop-color="#26BD00"
         id="stop19" />
      <stop
         offset="1"
         stop-color="#29DBD0"
         stop-opacity="0.64"
         id="stop21" />
    </linearGradient>
    <radialGradient
       id="paint2_diamond_6:10"
       cx="0"
       cy="0"
       r="1"
       gradientUnits="userSpaceOnUse"
       gradientTransform="matrix(0,45,-45,0,94,110)">
      <stop
         stop-color="#00FFE0"
         id="stop24" />
      <stop
         offset="1"
         stop-color="#56935C"
         stop-opacity="0.67"
         id="stop26" />
    </radialGradient>
  </defs>
  <path
     style="fill:#000000;stroke-width:3"
     id="path949"
     sodipodi:type="arc"
     sodipodi:cx="26.525999"
     sodipodi:cy="105.018"
     sodipodi:rx="18.438141"
     sodipodi:ry="18.576822"
     sodipodi:start="0.010566328"
     sodipodi:end="0.01004447"
     sodipodi:arc-type="slice"
     d="M 44.963111,105.21428 A 18.438141,18.576822 0 0 1 26.333585,123.59381 18.438141,18.576822 0 0 1 8.0888373,104.82656 18.438141,18.576822 0 0 1 26.713603,86.442137 18.438141,18.576822 0 0 1 44.96321,105.20459 L 26.525999,105.018 Z" />
  <path
     style="fill:#000000;stroke-width:3"
     id="path949-3"
     sodipodi:type="arc"
     sodipodi:cx="98.14032"
     sodipodi:cy="104.15417"
     sodipodi:rx="18.438141"
     sodipodi:ry="18.576822"
     sodipodi:start="0.010566328"
     sodipodi:end="0.01004447"
     sodipodi:arc-type="slice"
     d="M 116.57743,104.35045 A 18.438141,18.576822 0 0 1 97.947905,122.72998 18.438141,18.576822 0 0 1 79.703158,103.96273 18.438141,18.576822 0 0 1 98.327923,85.578307 18.438141,18.576822 0 0 1 116.57753,104.34076 l -18.43721,-0.18659 z" />
  <path
     style="fill:#000000;stroke-width:3"
     id="path949-3-6"
     sodipodi:type="arc"
     sodipodi:cx="159.65892"
     sodipodi:cy="103.33395"
     sodipodi:rx="18.438141"
     sodipodi:ry="18.576822"
     sodipodi:start="0.010566328"
     sodipodi:end="0.01004447"
     sodipodi:arc-type="slice"
     d="m 178.09603,103.53023 a 18.438141,18.576822 0 0 1 -18.62952,18.37953 18.438141,18.576822 0 0 1 -18.24475,-18.76725 18.438141,18.576822 0 0 1 18.62476,-18.384424 18.438141,18.576822 0 0 1 18.24961,18.762454 l -18.43721,-0.18659 z" />
</svg>
