<?xml version="1.0" encoding="UTF-8" standalone="no"?>
<svg
   width="192"
   height="192"
   viewBox="0 0 192 192"
   fill="none"
   version="1.1"
   id="svg31"
   sodipodi:docname="NoComprendo_Icone.svg"
   inkscape:version="1.1.1 (3bf5ae0d25, 2021-09-20)"
   xmlns:inkscape="http://www.inkscape.org/namespaces/inkscape"
   xmlns:sodipodi="http://sodipodi.sourceforge.net/DTD/sodipodi-0.dtd"
   xmlns="http://www.w3.org/2000/svg"
   xmlns:svg="http://www.w3.org/2000/svg">
  <sodipodi:namedview
     id="namedview33"
     pagecolor="#ffffff"
     bordercolor="#666666"
     borderopacity="1.0"
     inkscape:pageshadow="2"
     inkscape:pageopacity="0.0"
     inkscape:pagecheckerboard="0"
     showgrid="false"
     inkscape:zoom="3.8359375"
     inkscape:cx="-63.964073"
     inkscape:cy="116.55531"
     inkscape:window-width="3840"
     inkscape:window-height="1851"
     inkscape:window-x="0"
     inkscape:window-y="88"
     inkscape:window-maximized="1"
     inkscape:current-layer="g40189"
     inkscape:rotation="-1" />
  <defs
     id="defs29">
    <linearGradient
       id="linearGradient35576"
       inkscape:swatch="solid">
      <stop
         style="stop-color:#ffffff;stop-opacity:1;"
         offset="0"
         id="stop35574" />
    </linearGradient>
    <linearGradient
       id="linearGradient33057"
       inkscape:swatch="solid">
      <stop
         style="stop-color:#ffffff;stop-opacity:1;"
         offset="0"
         id="stop33055" />
    </linearGradient>
    <radialGradient
       id="paint0_diamond_6:10"
       cx="0"
       cy="0"
       r="1"
       gradientUnits="userSpaceOnUse"
       gradientTransform="matrix(0,78,-321.454,0,317,121)">
      <stop
         stop-color="#00FFE0"
         id="stop12" />
      <stop
         offset="0.0001"
         stop-color="#00FFE0"
         id="stop14" />
      <stop
         offset="1"
         stop-color="#26BD00"
         stop-opacity="0.74"
         id="stop16" />
    </radialGradient>
    <linearGradient
       id="paint1_linear_6:10"
       x1="51.9053"
       y1="25.315901"
       x2="120.73"
       y2="166.427"
       gradientUnits="userSpaceOnUse"
       gradientTransform="matrix(0.43039921,0,0,0.43039921,118.25292,106.45728)">
      <stop
         stop-color="#26BD00"
         id="stop19" />
      <stop
         offset="1"
         stop-color="#29DBD0"
         stop-opacity="0.64"
         id="stop21" />
    </linearGradient>
    <radialGradient
       id="paint2_diamond_6:10"
       cx="0"
       cy="0"
       r="1"
       gradientUnits="userSpaceOnUse"
       gradientTransform="matrix(0,19.367965,-19.367965,0,158.71045,153.80119)">
      <stop
         stop-color="#00FFE0"
         id="stop24" />
      <stop
         offset="1"
         stop-color="#56935C"
         stop-opacity="0.67"
         id="stop26" />
    </radialGradient>
    <clipPath
       clipPathUnits="userSpaceOnUse"
       id="clipPath37758">
      <ellipse
         style="opacity:1;fill:none;fill-opacity:0.00839293;fill-rule:nonzero;stroke:#000000;stroke-width:11.0623;stroke-miterlimit:4;stroke-dasharray:none;stroke-dashoffset:0;stroke-opacity:1"
         id="ellipse37760"
         cx="343.74985"
         cy="134.25073"
         rx="88.521751"
         ry="15.790709" />
    </clipPath>
  </defs>
  <path
     style="opacity:1;fill:#010101;fill-opacity:1;fill-rule:nonzero;stroke:none;stroke-width:10;stroke-miterlimit:4;stroke-dasharray:none;stroke-dashoffset:0;stroke-opacity:1"
     id="path40609"
     sodipodi:type="arc"
     sodipodi:cx="68.739273"
     sodipodi:cy="83.318634"
     sodipodi:rx="0.0029593927"
     sodipodi:ry="0.16362163"
     sodipodi:start="0.029106507"
     sodipodi:end="0.0075058932"
     sodipodi:arc-type="slice"
     d="m 68.742231,83.323396 a 0.00295939,0.16362163 0 0 1 -0.003,0.158814 0.00295939,0.16362163 0 0 1 -0.0029,-0.166571 0.00295939,0.16362163 0 0 1 0.003,-0.160613 0.00295939,0.16362163 0 0 1 0.0029,0.164836 l -0.003,-0.0012 z" />
  <g
     id="g41319"
     transform="translate(-246.4886,-6.2038834)">
    <rect
       style="opacity:1;fill:none;fill-opacity:0.00839293;fill-rule:nonzero;stroke:#000000;stroke-width:10;stroke-miterlimit:4;stroke-dasharray:none;stroke-dashoffset:0;stroke-opacity:1"
       id="rect36492"
       width="138.56511"
       height="78.13118"
       x="273.86133"
       y="46.45422"
       rx="8.37502"
       ry="0.48988" />
    <rect
       style="opacity:1;fill:#010101;fill-opacity:1;fill-rule:nonzero;stroke:#000000;stroke-width:9.65812;stroke-miterlimit:4;stroke-dasharray:none;stroke-dashoffset:0;stroke-opacity:1"
       id="rect36862"
       width="178.43108"
       height="12.782989"
       x="254.53677"
       y="138.11131"
       rx="0"
       ry="0"
       clip-path="url(#clipPath37758)"
       transform="matrix(1,0,0,0.51599056,0,74.509868)" />
    <rect
       style="opacity:1;fill:#010101;fill-opacity:1;fill-rule:nonzero;stroke:#000000;stroke-width:6.64122;stroke-miterlimit:4;stroke-dasharray:none;stroke-dashoffset:0;stroke-opacity:1"
       id="rect37784"
       width="170.37915"
       height="1.306278"
       x="258.56839"
       y="139.20683" />
    <rect
       style="opacity:1;fill:#ffffff;fill-opacity:1;fill-rule:nonzero;stroke:#ffffff;stroke-width:5.37056;stroke-miterlimit:4;stroke-dasharray:none;stroke-dashoffset:0;stroke-opacity:1"
       id="rect37888"
       width="29.140581"
       height="1.8762422"
       x="328.77591"
       y="142.67894" />
    <g
       id="g40189"
       transform="matrix(1,0,0,1.0625204,0,-8.9638313)">
      <rect
         style="opacity:1;fill:#ffffff;fill-opacity:1;fill-rule:nonzero;stroke:none;stroke-width:2.9104;stroke-miterlimit:4;stroke-dasharray:none;stroke-dashoffset:0;stroke-opacity:1"
         id="rect41695"
         width="138.56512"
         height="73.533813"
         x="273.86133"
         y="52.157162" />
      <rect
         style="opacity:1;fill:#000000;fill-opacity:1;fill-rule:nonzero;stroke:#000000;stroke-width:6.57546;stroke-miterlimit:4;stroke-dasharray:none;stroke-dashoffset:0;stroke-opacity:1"
         id="rect38344"
         width="40.162121"
         height="13.099042"
         x="276.24326"
         y="114.03548"
         ry="4.5955367" />
      <path
         style="opacity:1;fill:none;fill-opacity:1;fill-rule:nonzero;stroke:#000000;stroke-width:8.23326;stroke-miterlimit:4;stroke-dasharray:none;stroke-dashoffset:0;stroke-opacity:1"
         id="rect38993"
         width="38.458447"
         height="26.137356"
         x="277.05383"
         y="116.56105"
         ry="6.2829175"
         rx="0"
         sodipodi:type="rect"
         d="m 283.33675,116.56105 h 25.89261 c 3.48074,0 6.28292,2.80218 6.28292,6.28292 v 13.57152 c 0,3.48074 -2.80218,6.28292 -6.28292,6.28292 h -25.89261 c -3.48074,0 -6.28292,-2.80218 -6.28292,-6.28292 v -13.57152 c 0,-3.48074 2.80218,-6.28292 6.28292,-6.28292 z" />
      <ellipse
         style="opacity:1;fill:#010101;fill-opacity:1;fill-rule:nonzero;stroke:none;stroke-width:10;stroke-miterlimit:4;stroke-dasharray:none;stroke-dashoffset:0;stroke-opacity:1"
         id="path39908"
         sodipodi:type="arc"
         sodipodi:cx="295.93268"
         sodipodi:cy="111.64623"
         sodipodi:rx="17.376339"
         sodipodi:ry="2.8308673"
         sodipodi:start="0.028230732"
         sodipodi:end="6.1010018"
         sodipodi:arc-type="arc"
         d="m 313.30209,111.72614 a 17.376339,2.8308673 0 0 1 -16.94594,2.75012 17.376339,2.8308673 0 0 1 -17.74836,-2.61233 17.376339,2.8308673 0 0 1 15.07956,-3.02483 17.376339,2.8308673 0 0 1 19.3341,2.29424"
         sodipodi:open="true" />
      <rect
         style="opacity:1;fill:#000000;fill-opacity:1;fill-rule:nonzero;stroke:none;stroke-width:3.33433;stroke-miterlimit:4;stroke-dasharray:none;stroke-dashoffset:0;stroke-opacity:1"
         id="rect42291"
         width="25.945448"
         height="16.787613"
         x="283.27664"
         y="125.30849"
         ry="5.5448318" />
    </g>
    <path
       style="opacity:1;fill:#010101;fill-opacity:1;fill-rule:nonzero;stroke:none;stroke-width:10;stroke-miterlimit:4;stroke-dasharray:none;stroke-dashoffset:0;stroke-opacity:1"
       id="path40607"
       sodipodi:type="arc"
       sodipodi:cx="296.26788"
       sodipodi:cy="89.086403"
       sodipodi:rx="14.969283"
       sodipodi:ry="15.152553"
       sodipodi:start="0.029106507"
       sodipodi:end="0.029099951"
       sodipodi:arc-type="slice"
       d="M 311.23083,89.527379 A 14.969283,15.152553 0 0 1 295.83227,104.23254 14.969283,15.152553 0 0 1 281.30494,88.645477 14.969283,15.152553 0 0 1 296.70345,73.940266 14.969283,15.152553 0 0 1 311.23083,89.527279 L 296.26788,89.086403 Z" />
    <path
       style="fill:none;stroke:#000000;stroke-width:3;stroke-linecap:butt;stroke-linejoin:miter;stroke-miterlimit:4;stroke-dasharray:none;stroke-opacity:1"
       d="m 316.44401,82.620898 25.7852,-11.373296"
       id="path40895" />
    <path
       style="fill:none;stroke:#000000;stroke-width:3;stroke-linecap:butt;stroke-linejoin:miter;stroke-miterlimit:4;stroke-dasharray:none;stroke-opacity:1"
       d="m 315.94239,92.169419 28.17906,9.049701"
       id="path41010" />
    <path
       style="fill:none;stroke:#000000;stroke-width:3;stroke-linecap:butt;stroke-linejoin:miter;stroke-miterlimit:4;stroke-dasharray:none;stroke-opacity:1"
       d="m 321.6485,87.299775 27.3804,-0.399586"
       id="path41125" />
  </g>
  <path
     d="m 129.66969,151.65694 8.0226,16.449 c 5.62816,11.53944 20.17462,16.00354 32.52272,9.98139 12.34773,-6.02257 17.78539,-20.23393 12.15749,-31.77341 l -12.34256,-25.30579 c -0.85176,-1.74613 -3.05928,-2.42362 -4.92764,-1.51234 -1.86835,0.91129 -2.69386,3.06802 -1.8421,4.81415 l 7.71404,15.81609 -2.70807,1.32073 -11.41659,-23.40787 c -0.85164,-1.74608 -3.05924,-2.42362 -4.92769,-1.51229 -1.86845,0.91128 -2.69365,3.06801 -1.84202,4.8141 l 10.18251,20.87729 -2.7079,1.32072 -12.03387,-24.67315 c -0.85163,-1.74609 -3.05924,-2.42362 -4.92769,-1.51234 -1.8684,0.91133 -2.69365,3.06806 -1.84202,4.81415 l 12.03392,24.67315 -2.7079,1.32072 -9.56541,-19.612 c -0.85163,-1.74609 -3.05923,-2.42362 -4.92764,-1.51234 -1.86845,0.91133 -2.69369,3.06806 -1.84206,4.81415 l 13.30519,27.27978 c 5.64305,-1.96951 11.85965,0.26125 14.37753,5.42389 l -2.7079,1.32046 c -2.03648,-4.17531 -7.35837,-5.80866 -11.82639,-3.62955 l -1.3539,0.66065 -7.09694,-14.55102 c -0.85163,-1.74613 -3.05924,-2.42362 -4.92764,-1.51233 -1.86845,0.91128 -2.6937,3.06788 -1.84207,4.81401 z"
     fill="url(#paint1_linear_6:10)"
     id="path6"
     style="fill:url(#paint1_linear_6:10);stroke-width:0.430399" />
  <circle
     cx="158.71045"
     cy="154.66199"
     r="19.367964"
     fill="#124320"
     id="circle8"
     style="stroke-width:0.430399" />
  <path
     d="m 154.50067,153.04024 c 2.14855,0.3581 4.11806,0.53714 5.90852,0.53714 1.79051,0 2.93365,-0.0137 3.42947,-0.0413 -0.0551,-2.09346 -0.0826,-4.1043 -0.0826,-6.03248 0,-1.92819 0,-3.2366 0,-3.92524 0,-0.68864 0.0275,-1.11559 0.0826,-1.28087 0.0551,-0.19282 0.23413,-0.37186 0.53713,-0.53714 0.30299,-0.16527 0.74373,-0.2479 1.32218,-0.2479 0.82637,0 1.23955,0.49581 1.23955,1.48745 v 14.62669 c 0,3.03002 -0.0689,6.36302 -0.20659,9.99904 -0.0275,0.79882 -0.70241,1.19823 -2.02459,1.19823 -0.66111,0 -0.99163,-0.39941 -0.99163,-1.19823 l 0.16527,-10.94936 c -0.88146,0.055 -2.09346,0.0826 -3.63606,0.0826 -1.515,0 -3.42942,-0.16528 -5.74325,-0.49582 0,3.63601 0.16527,7.43729 0.49582,11.40386 0.0276,0.44073 -0.16527,0.78505 -0.57846,1.03295 -0.41318,0.22037 -0.93654,0.33055 -1.57009,0.33055 -0.606,0 -0.93655,-0.31678 -0.99164,-0.95032 -0.35809,-3.91147 -0.53714,-7.76785 -0.53714,-11.56914 l 0.24791,-12.89131 c 0,-0.55091 0.20659,-0.95032 0.61977,-1.19823 0.41319,-0.27546 0.85392,-0.41319 1.32219,-0.41319 0.77128,0 1.15691,0.37187 1.15691,1.1156 z"
     fill="url(#paint2_diamond_6:10)"
     id="path10"
     style="fill:url(#paint2_diamond_6:10);stroke-width:0.430399" />
</svg>
