<?xml version="1.0" encoding="UTF-8" standalone="no"?>
<svg
   width="192"
   height="192"
   viewBox="0 0 192 192"
   fill="none"
   version="1.1"
   id="svg31"
   sodipodi:docname="SiteWebHeficience_Icone.svg"
   inkscape:version="1.1.1 (3bf5ae0d25, 2021-09-20)"
   xmlns:inkscape="http://www.inkscape.org/namespaces/inkscape"
   xmlns:sodipodi="http://sodipodi.sourceforge.net/DTD/sodipodi-0.dtd"
   xmlns="http://www.w3.org/2000/svg"
   xmlns:svg="http://www.w3.org/2000/svg">
  <sodipodi:namedview
     id="namedview33"
     pagecolor="#ffffff"
     bordercolor="#666666"
     borderopacity="1.0"
     inkscape:pageshadow="2"
     inkscape:pageopacity="0.0"
     inkscape:pagecheckerboard="0"
     showgrid="false"
     inkscape:zoom="2.9447732"
     inkscape:cx="253.66979"
     inkscape:cy="96.102477"
     inkscape:window-width="3840"
     inkscape:window-height="1851"
     inkscape:window-x="0"
     inkscape:window-y="88"
     inkscape:window-maximized="1"
     inkscape:current-layer="svg31" />
  <path
     d="m 65.595725,90.473962 8.022598,16.448998 c 5.628159,11.53944 20.174616,16.00354 32.522727,9.98139 12.34773,-6.02257 17.78539,-20.233928 12.15749,-31.773404 L 105.95598,59.825151 c -0.85176,-1.746129 -3.05928,-2.423621 -4.92764,-1.512336 -1.86836,0.911284 -2.69387,3.068014 -1.84211,4.814144 l 7.71405,15.816094 -2.70807,1.320725 -11.416602,-23.407865 c -0.851632,-1.746086 -3.059235,-2.423621 -4.927684,-1.512294 -1.868449,0.911285 -2.693653,3.068015 -1.842022,4.814101 L 96.18841,81.03501 93.480515,82.355732 81.44664,57.68258 c -0.851632,-1.746086 -3.059236,-2.423621 -4.927684,-1.512336 -1.868406,0.911328 -2.693653,3.068058 -1.842023,4.814145 l 12.033919,24.673151 -2.7079,1.320722 -9.565407,-19.612 c -0.851631,-1.746087 -3.059235,-2.423621 -4.927641,-1.512337 -1.868449,0.911327 -2.693696,3.068058 -1.842065,4.814145 l 13.305189,27.279782 c 5.64305,-1.96951 11.859651,0.26125 14.377532,5.423888 l -2.707902,1.32046 c -2.036477,-4.17531 -7.358364,-5.808658 -11.826382,-3.62955 L 79.46237,101.7233 72.365431,87.172282 c -0.851631,-1.746128 -3.059234,-2.42362 -4.92764,-1.51233 -1.86845,0.91128 -2.693697,3.06788 -1.842066,4.81401 z"
     fill="url(#paint1_linear_6:10)"
     id="path6"
     style="fill:url(#paint1_linear_6:10);stroke-width:0.430399" />
  <circle
     cx="94.636482"
     cy="93.479012"
     r="19.367964"
     fill="#124320"
     id="circle8"
     style="stroke-width:0.430399" />
  <path
     d="m 90.426703,91.857262 c 2.148554,0.3581 4.118057,0.53714 5.908517,0.53714 1.79051,0 2.93365,-0.0137 3.42947,-0.0413 -0.0551,-2.09346 -0.0826,-4.1043 -0.0826,-6.03248 0,-1.928185 0,-3.236602 0,-3.925239 0,-0.688639 0.0275,-1.115595 0.0826,-1.280868 0.0551,-0.192818 0.23414,-0.371865 0.53714,-0.537138 0.30299,-0.165273 0.74373,-0.24791 1.32218,-0.24791 0.82637,0 1.23955,0.49582 1.23955,1.487459 v 14.626686 c 0,3.03002 -0.0689,6.363018 -0.20659,9.999038 -0.0275,0.79882 -0.70241,1.19823 -2.02459,1.19823 -0.66111,0 -0.99164,-0.39941 -0.99164,-1.19823 l 0.16527,-10.949358 c -0.88146,0.055 -2.09346,0.0826 -3.63606,0.0826 -1.515,0 -3.42942,-0.16528 -5.743247,-0.49582 0,3.63601 0.165274,7.437288 0.495821,11.403858 0.02755,0.44073 -0.165274,0.78505 -0.578457,1.03295 -0.413183,0.22037 -0.936549,0.33055 -1.570096,0.33055 -0.606002,0 -0.936548,-0.31678 -0.99164,-0.95032 -0.358092,-3.91147 -0.537138,-7.767848 -0.537138,-11.569138 l 0.24791,-12.891311 c 0,-0.550911 0.206591,-0.950321 0.619775,-1.198231 0.413183,-0.275456 0.853911,-0.413183 1.322186,-0.413183 0.771275,0 1.156913,0.371865 1.156913,1.115595 z"
     fill="url(#paint2_diamond_6:10)"
     id="path10"
     style="fill:url(#paint2_diamond_6:10);stroke-width:0.430399" />
  <defs
     id="defs29">
    <radialGradient
       id="paint0_diamond_6:10"
       cx="0"
       cy="0"
       r="1"
       gradientUnits="userSpaceOnUse"
       gradientTransform="matrix(0,78,-321.454,0,317,121)">
      <stop
         stop-color="#00FFE0"
         id="stop12" />
      <stop
         offset="0.0001"
         stop-color="#00FFE0"
         id="stop14" />
      <stop
         offset="1"
         stop-color="#26BD00"
         stop-opacity="0.74"
         id="stop16" />
    </radialGradient>
    <linearGradient
       id="paint1_linear_6:10"
       x1="51.9053"
       y1="25.315901"
       x2="120.73"
       y2="166.427"
       gradientUnits="userSpaceOnUse"
       gradientTransform="matrix(0.43039921,0,0,0.43039921,54.178956,45.2743)">
      <stop
         stop-color="#26BD00"
         id="stop19" />
      <stop
         offset="1"
         stop-color="#29DBD0"
         stop-opacity="0.64"
         id="stop21" />
    </linearGradient>
    <radialGradient
       id="paint2_diamond_6:10"
       cx="0"
       cy="0"
       r="1"
       gradientUnits="userSpaceOnUse"
       gradientTransform="matrix(0,19.367965,-19.367965,0,94.63648,92.618212)">
      <stop
         stop-color="#00FFE0"
         id="stop24" />
      <stop
         offset="1"
         stop-color="#56935C"
         stop-opacity="0.67"
         id="stop26" />
    </radialGradient>
  </defs>
  <text
     xml:space="preserve"
     style="font-style:normal;font-weight:normal;font-size:31.0178px;line-height:1.25;font-family:sans-serif;letter-spacing:0px;word-spacing:0px;fill:#000000;fill-opacity:1;stroke:none;stroke-width:0.775445"
     x="7.3455319"
     y="91.9412"
     id="text4410"
     transform="scale(0.77544476,1.2895825)"><tspan
       sodipodi:role="line"
       id="tspan4408"
       x="7.3455319"
       y="91.9412"
       style="font-style:normal;font-variant:normal;font-weight:bold;font-stretch:normal;font-family:sans-serif;-inkscape-font-specification:'sans-serif Bold';stroke-width:0.775445">www.</tspan></text>
  <text
     xml:space="preserve"
     style="font-style:normal;font-weight:normal;font-size:34.1241px;line-height:1.25;font-family:sans-serif;letter-spacing:0px;word-spacing:0px;fill:#000000;fill-opacity:1;stroke:none;stroke-width:0.853101"
     x="136.8927"
     y="100.65135"
     id="text4410-3"
     transform="scale(0.85310139,1.1721936)"><tspan
       sodipodi:role="line"
       id="tspan4408-6"
       x="136.8927"
       y="100.65135"
       style="font-style:normal;font-variant:normal;font-weight:bold;font-stretch:normal;font-family:sans-serif;-inkscape-font-specification:'sans-serif Bold';stroke-width:0.853101">.com</tspan></text>
</svg>
